<?xml version="1.0" encoding="utf-8"?>
<!-- Generator: Adobe Illustrator 23.0.3, SVG Export Plug-In . SVG Version: 6.00 Build 0)  -->
<svg version="1.1" xmlns="http://www.w3.org/2000/svg" xmlns:xlink="http://www.w3.org/1999/xlink" x="0px" y="0px"
	 viewBox="0 0 338.7 79.5" style="enable-background:new 0 0 338.7 79.5;" xml:space="preserve">
<style type="text/css">
	.st0{display:none;}
	.st1{display:inline;}
	.st2{fill:#DCDDDE;}
	.st3{fill:#939598;}
	.st4{fill:#58595B;}
	.st5{fill:#8C9398;}
	.st6{fill:#282829;}
	.st7{fill:#6D6E71;}
	.st8{fill:#A7A9AC;}
	.st9{fill:#414042;}
</style>
<g id="Layer_1" class="st0">
	<g class="st1">
		<g>
			<rect x="0.6" y="32.4" class="st2" width="9.3" height="23.2"/>
		</g>
	</g>
	<g class="st1">
		<g>
			<path class="st2" d="M147.7,27.8c-1.2-1.9-4.1-4.4-9.2-4.4c-8.3,0-15.6,6.4-15.6,16.6c0,8.9,5.8,16.6,15.6,16.6
				c3.6,0,7.5-1.4,9.2-4.4v3.4h9.3V24.5h-9.3V27.8z M147.7,40.5c-0.1,1.4-0.5,2.7-1.3,4c-1.2,1.9-3.2,3.5-6.5,3.5
				c-5.6,0-7.7-4.9-7.7-7.8v-0.1c0-3.5,2.4-8,7.7-8c3.9,0,6.1,2.2,7.1,4.3C147.5,37.7,147.8,39.1,147.7,40.5z"/>
		</g>
	</g>
	<g class="st1">
		<g>
			<path class="st2" d="M189.3,23.8v3.4c-1-1-3.6-3.7-9.1-3.7c-7.9,0-15.4,6-15.4,16.5c0,9.4,6.2,16.6,15.6,16.6
				c6.3,0,8.5-3.1,9.4-4.4v3.4h8.8V14.1h-9.3V23.8z M187.6,45.6c-1.5,1.5-3.5,2.4-5.8,2.4c-4.4,0-7.8-3.2-7.8-8v-0.1
				c0-3.6,2.5-7.8,7.9-7.8c2.2,0,4.2,0.8,5.6,2.2c1.4,1.3,2.3,3.3,2.3,5.5C189.9,42.1,189.1,44.1,187.6,45.6z"/>
		</g>
	</g>
	<g class="st1">
		<g>
			<path class="st2" d="M222.5,47.9c-4.4,0-7.4-3.4-7.4-7.9c0-2.2,0.7-4.3,2-5.7c1.4-1.5,3.2-2.3,5.4-2.2c3.9,0,5.7,2.2,6.7,4.4h9.4
				c-1.6-7.6-8.2-13.1-16.5-13.1c-9.3,0-16.4,7.4-16.4,16.5c0,9.2,7.2,16.6,16.6,16.6c8.4,0,14.6-5.8,16.3-12.8h-9.5
				C228.2,45.7,226.3,47.9,222.5,47.9z"/>
		</g>
	</g>
	<g class="st1">
		<g>
			<path class="st2" d="M270.7,27.8c-1.2-1.9-4.1-4.4-9.2-4.4c-8.3,0-15.6,6.4-15.6,16.6c0,8.9,5.8,16.6,15.6,16.6
				c3.6,0,7.5-1.4,9.2-4.4v3.4h9.3V24.5h-9.3V27.8z M270.7,40.5c-0.1,1.4-0.5,2.7-1.3,4c-1.2,1.9-3.2,3.5-6.5,3.5
				c-5.6,0-7.7-4.9-7.7-7.8v-0.1c0-3.5,2.3-8,7.7-8c3.9,0,6,2.2,7.1,4.3C270.5,37.7,270.8,39.1,270.7,40.5z"/>
		</g>
	</g>
	<g class="st1">
		<g>
			<path class="st2" d="M302.8,36c-2.5-0.7-4.8-1.7-4.8-3.1c0-0.9,0.7-2.1,2.6-2.1c2.7,0,2.9,1.7,2.9,2.4h9.1
				c-0.8-8.2-7.8-9.8-11.9-9.8c-6.4,0-12.1,4.1-12.1,10.5c0,4.2,3.4,6.9,7.4,8.1c5.9,2.3,8.2,2.6,8.2,4.7c0,1.5-1.7,2.4-3.2,2.4
				c-0.4,0-3.1,0-3.5-2.8h-9.2c0.9,8.2,8,10.3,12.7,10.3c6.9,0,12.7-4,12.7-10.9C313.7,39.1,308.1,37.5,302.8,36z"/>
		</g>
	</g>
	<g class="st1">
		<g>
			<polygon class="st2" points="334.2,24.5 334.2,14.1 324.9,14.1 324.9,24.5 320.3,24.5 320.3,31.6 324.9,31.6 324.9,55.6 
				334.2,55.6 334.2,31.6 338.7,31.6 338.7,24.5 			"/>
		</g>
	</g>
	<g class="st1">
		<g>
			<path class="st3" d="M10.6,23c0,2.9-2.4,5.3-5.3,5.3C2.4,28.3,0,26,0,23c0-2.9,2.4-5.3,5.3-5.3C8.2,17.7,10.6,20.1,10.6,23z"/>
		</g>
	</g>
	<g class="st1">
		<g>
			<path class="st2" d="M79.6,25.8c0,0-1-1.2-2.5-1.8c-1.1-0.5-2.3-0.6-2.3-0.6c-5.4,0-7,2.8-7.9,4.5v-3.5h-8.8v31.1h9.3V38.9
				c0-4.4,2.2-6.1,7-6.1h0.3L79.6,25.8z"/>
		</g>
	</g>
	<g class="st1">
		<g>
			<path class="st2" d="M114.3,30c2.3,3,3.4,6.7,3.4,10.2c0,7.6-5.4,16.5-16.7,16.5c-11.3,0-16.8-8.9-16.8-16.5v-0.1
				c0-3.4,1.1-7.1,3.4-10.2l0,0c2.7-3.6,7.2-6.3,13.3-6.3C107.1,23.8,111.5,26.4,114.3,30L114.3,30z M107.8,37.1
				c-1.1-2.8-3.8-4.7-6.9-4.7c-3,0-5.7,1.9-6.9,4.7L94,37.4c-0.3,0.9-0.5,1.8-0.5,2.8v0c0,4.5,3.4,7.8,7.5,7.8c4,0,7.5-3.3,7.5-7.8
				c0-1-0.2-2-0.5-2.8L107.8,37.1z"/>
		</g>
	</g>
	<g class="st1">
		<path class="st3" d="M101.1,69.2c-7.4,0-14.4-2.9-19.6-8.1l4.3-4.3c8.2,8.2,22.4,8.2,30.6,0l4.3,4.3
			C115.5,66.3,108.6,69.2,101.1,69.2z"/>
	</g>
	<g class="st1">
		<path class="st3" d="M116.5,23.3c-8.2-8.2-22.5-8.2-30.6,0L81.5,19C92,8.5,110.3,8.5,120.8,19L116.5,23.3z"/>
	</g>
	<g class="st1">
		<path class="st4" d="M101.1,79.5c-9.8,0-19-3.8-26-10.8l4.3-4.3c5.8,5.8,13.5,9,21.6,9s15.9-3.2,21.6-9l4.3,4.3
			C120.2,75.7,111,79.5,101.1,79.5z"/>
	</g>
	<g class="st1">
		<path class="st4" d="M122.8,15.1c-5.8-5.8-13.5-9-21.6-9c-8.2,0-15.9,3.2-21.6,9l-4.3-4.3C82.1,3.8,91.3,0,101.1,0s19,3.8,26,10.7
			L122.8,15.1z"/>
	</g>
	<g class="st1">
		<path class="st2" d="M43.2,33.6c3.3-1.9,4.7-5.1,4.7-8.2c0-3.5-1.3-6.2-3.6-7.9c-2.3-1.8-5.7-2.8-9.9-2.8h-15v40.8h13.4
			c6.9,0,9.6-0.4,13.3-3.5c2.5-2,3.8-5.6,3.8-8.9C49.9,41.4,49.8,36,43.2,33.6z M29.9,23.9h3.7c0.8,0,1.9,0,2.8,0.4
			c0.9,0.4,1.6,1.2,1.6,2.7c0,1.6-0.7,2.4-1.7,2.9c-0.9,0.4-2,0.4-2.8,0.4h-3.7V23.9z M37.8,45.9c-1.1,0.5-2.4,0.5-3.1,0.5h-4.9
			v-7.4h4.9c0.8,0,2.1,0,3.2,0.4c1.1,0.4,2,1.3,2,3.1C40,44.4,39,45.4,37.8,45.9z"/>
	</g>
	<g class="st1">
		<path class="st5" d="M266.9,63.7c0.8-0.1,1.9-0.2,3.2-0.2c1.6,0,2.9,0.4,3.6,1c0.7,0.6,1.1,1.5,1.1,2.6c0,1.1-0.3,2-1,2.7
			c-0.9,0.9-2.3,1.4-3.9,1.4c-0.5,0-1,0-1.3-0.1v5h-1.7V63.7z M268.6,69.8c0.4,0.1,0.8,0.1,1.4,0.1c2,0,3.2-1,3.2-2.7
			c0-1.7-1.2-2.5-3-2.5c-0.7,0-1.3,0.1-1.6,0.1V69.8z"/>
		<path class="st5" d="M285,71.6c0,3.3-2.4,4.8-4.6,4.8c-2.5,0-4.4-1.8-4.4-4.6c0-3,2-4.8,4.6-4.8C283.2,66.9,285,68.8,285,71.6z
			 M277.6,71.7c0,2,1.2,3.5,2.8,3.5c1.6,0,2.8-1.5,2.8-3.5c0-1.5-0.8-3.5-2.8-3.5S277.6,69.9,277.6,71.7z"/>
		<path class="st5" d="M287.6,67.1l1.2,4.6c0.3,1,0.5,1.9,0.7,2.9h0.1c0.2-0.9,0.5-1.9,0.8-2.9l1.5-4.6h1.4l1.4,4.5
			c0.3,1.1,0.6,2,0.8,2.9h0.1c0.2-0.9,0.4-1.9,0.7-2.9l1.3-4.5h1.7l-3,9h-1.5l-1.4-4.3c-0.3-1-0.6-1.9-0.8-3h0c-0.2,1.1-0.5,2-0.8,3
			l-1.5,4.3h-1.5l-2.8-9H287.6z"/>
		<path class="st5" d="M301.8,71.9c0,2.2,1.5,3.1,3.2,3.1c1.2,0,1.9-0.2,2.6-0.5l0.3,1.2c-0.6,0.3-1.6,0.6-3.1,0.6
			c-2.9,0-4.6-1.8-4.6-4.5s1.6-4.9,4.3-4.9c3,0,3.8,2.6,3.8,4.3c0,0.3,0,0.6-0.1,0.8H301.8z M306.8,70.8c0-1-0.4-2.7-2.3-2.7
			c-1.7,0-2.5,1.5-2.6,2.7H306.8z"/>
		<path class="st5" d="M310.5,69.9c0-1.1,0-2-0.1-2.8h1.5l0.1,1.8h0.1c0.4-1.2,1.4-2,2.6-2c0.2,0,0.3,0,0.5,0.1v1.5
			c-0.2,0-0.3-0.1-0.6-0.1c-1.2,0-2,0.9-2.3,2.1c0,0.2-0.1,0.5-0.1,0.8v4.8h-1.7V69.9z"/>
		<path class="st5" d="M317.5,71.9c0,2.2,1.5,3.1,3.2,3.1c1.2,0,1.9-0.2,2.6-0.5l0.3,1.2c-0.6,0.3-1.6,0.6-3.1,0.6
			c-2.9,0-4.6-1.8-4.6-4.5s1.6-4.9,4.3-4.9c3,0,3.8,2.6,3.8,4.3c0,0.3,0,0.6-0.1,0.8H317.5z M322.4,70.8c0-1-0.4-2.7-2.3-2.7
			c-1.7,0-2.5,1.5-2.6,2.7H322.4z"/>
		<path class="st5" d="M334.2,62.9v10.9c0,0.8,0,1.7,0.1,2.3h-1.5l-0.1-1.6h0c-0.5,1-1.6,1.8-3.2,1.8c-2.2,0-4-1.8-4-4.6
			c0-3,1.9-4.8,4.2-4.8c1.4,0,2.4,0.7,2.8,1.4h0v-5.4H334.2z M332.5,70.8c0-0.2,0-0.5-0.1-0.7c-0.2-1-1.2-1.9-2.4-1.9
			c-1.7,0-2.8,1.5-2.8,3.5c0,1.8,0.9,3.3,2.7,3.3c1.1,0,2.2-0.7,2.5-2c0.1-0.2,0.1-0.4,0.1-0.7V70.8z"/>
	</g>
</g>
<g id="Layer_2">
	<g>
		<g>
			<g>
				<rect x="1.3" y="32.6" class="st6" width="9.3" height="23.1"/>
			</g>
		</g>
		<g>
			<g>
				<path class="st6" d="M148.1,28c-1.2-1.9-4.1-4.4-9.2-4.4c-8.3,0-15.6,6.4-15.6,16.6c0,8.9,5.8,16.6,15.6,16.6
					c3.6,0,7.5-1.4,9.2-4.4v3.4h9.3v-31h-9.3V28z M148.1,40.7c-0.1,1.4-0.5,2.7-1.3,4c-1.2,1.9-3.2,3.5-6.5,3.5
					c-5.6,0-7.7-4.9-7.7-7.8v-0.1c0-3.5,2.4-8,7.7-8c3.9,0,6.1,2.2,7.1,4.3C147.9,37.9,148.2,39.3,148.1,40.7z"/>
			</g>
		</g>
		<g>
			<g>
				<path class="st6" d="M189.6,24v3.4c-1-1-3.6-3.7-9.1-3.7c-7.9,0-15.4,6-15.4,16.5c0,9.3,6.2,16.6,15.5,16.6
					c6.3,0,8.5-3.1,9.4-4.3v3.4h8.8V14.3h-9.3V24z M187.9,45.7c-1.5,1.5-3.5,2.4-5.8,2.4c-4.4,0-7.8-3.2-7.8-7.9V40
					c0-3.6,2.5-7.8,7.9-7.8c2.2,0,4.1,0.8,5.5,2.2c1.4,1.3,2.3,3.3,2.3,5.5C190.2,42.2,189.4,44.2,187.9,45.7z"/>
			</g>
		</g>
		<g>
			<g>
				<path class="st6" d="M222.7,48.1c-4.4,0-7.4-3.4-7.4-7.9c0-2.2,0.7-4.3,2-5.7c1.4-1.5,3.2-2.3,5.4-2.2c3.9,0,5.7,2.2,6.7,4.4
					h9.4c-1.6-7.6-8.2-13-16.4-13c-9.3,0-16.4,7.4-16.4,16.5c0,9.2,7.2,16.6,16.6,16.6c8.4,0,14.6-5.8,16.3-12.8h-9.5
					C228.4,45.8,226.5,48.1,222.7,48.1z"/>
			</g>
		</g>
		<g>
			<g>
				<path class="st6" d="M270.8,28c-1.2-1.9-4.1-4.4-9.2-4.4c-8.3,0-15.6,6.4-15.6,16.6c0,8.9,5.8,16.6,15.6,16.6
					c3.6,0,7.5-1.4,9.2-4.4v3.4h9.3v-31h-9.3V28z M270.8,40.7c-0.1,1.4-0.5,2.7-1.3,4c-1.2,1.9-3.2,3.5-6.5,3.5
					c-5.6,0-7.7-4.9-7.7-7.8v-0.1c0-3.5,2.3-8,7.7-8c3.9,0,6,2.2,7,4.3C270.7,37.9,270.9,39.3,270.8,40.7z"/>
			</g>
		</g>
		<g>
			<g>
				<path class="st6" d="M302.9,36.2c-2.5-0.7-4.7-1.7-4.7-3.1c0-0.9,0.7-2.1,2.6-2.1c2.7,0,2.9,1.7,2.9,2.4h9.1
					c-0.8-8.2-7.8-9.8-11.9-9.8c-6.4,0-12,4.1-12,10.5c0,4.2,3.4,6.8,7.4,8.1c5.9,2.3,8.2,2.6,8.2,4.7c0,1.5-1.7,2.4-3.2,2.4
					c-0.4,0-3.1,0-3.5-2.8h-9.2c0.8,8.2,7.9,10.3,12.6,10.3c6.9,0,12.6-4,12.6-10.8C313.8,39.2,308.2,37.6,302.9,36.2z"/>
			</g>
		</g>
		<g>
			<g>
				<polygon class="st6" points="334.2,24.7 334.2,14.3 324.9,14.3 324.9,24.7 320.3,24.7 320.3,31.7 324.9,31.7 324.9,55.7 
					334.2,55.7 334.2,31.7 338.7,31.7 338.7,24.7 				"/>
			</g>
		</g>
		<g>
			<g>
				<path class="st7" d="M11.2,23.2c0,2.9-2.4,5.3-5.3,5.3c-2.9,0-5.3-2.4-5.3-5.3c0-2.9,2.4-5.3,5.3-5.3
					C8.9,17.9,11.2,20.3,11.2,23.2z"/>
			</g>
		</g>
		<g>
			<g>
				<path class="st6" d="M80.1,26c0,0-1-1.2-2.5-1.8c-1.1-0.5-2.3-0.6-2.3-0.6c-5.4,0-7,2.8-7.9,4.5v-3.5h-8.7v31H68V39
					c0-4.4,2.2-6.1,7-6.1h0.3L80.1,26z"/>
			</g>
		</g>
		<g>
			<g>
				<path class="st6" d="M114.8,30.2c2.3,3,3.4,6.7,3.4,10.2c0,7.6-5.4,16.5-16.7,16.5c-11.3,0-16.7-8.9-16.7-16.5v-0.1
					c0-3.4,1.1-7.1,3.4-10.2l0,0c2.7-3.6,7.1-6.2,13.3-6.2C107.6,23.9,112,26.5,114.8,30.2L114.8,30.2z M108.3,37.2
					c-1.1-2.8-3.8-4.7-6.8-4.7c-3,0-5.7,1.9-6.9,4.7l-0.1,0.2c-0.3,0.9-0.5,1.8-0.5,2.8v0c0,4.5,3.4,7.8,7.5,7.8
					c4,0,7.4-3.3,7.4-7.8c0-1-0.2-1.9-0.5-2.8L108.3,37.2z"/>
			</g>
		</g>
		<g>
			<path class="st7" d="M101.6,69.3c-7.4,0-14.4-2.9-19.6-8.1l4.3-4.3c8.2,8.2,22.4,8.2,30.6,0l4.3,4.3
				C116,66.4,109,69.3,101.6,69.3z"/>
		</g>
		<g>
			<path class="st7" d="M116.9,23.5c-8.2-8.2-22.4-8.2-30.6,0L82,19.1c10.5-10.5,28.7-10.5,39.2,0L116.9,23.5z"/>
		</g>
		<g>
			<path class="st8" d="M101.6,79.6c-9.8,0-19-3.8-25.9-10.7l4.3-4.3c5.8,5.8,13.4,8.9,21.6,8.9c8.2,0,15.8-3.2,21.6-8.9l4.3,4.3
				C120.6,75.8,111.4,79.6,101.6,79.6z"/>
		</g>
		<g>
			<path class="st8" d="M123.2,15.3c-5.8-5.8-13.4-8.9-21.6-8.9c-8.2,0-15.8,3.2-21.6,8.9l-4.3-4.3C82.6,4,91.8,0.2,101.6,0.2
				c9.8,0,19,3.8,25.9,10.7L123.2,15.3z"/>
		</g>
		<g>
			<path class="st6" d="M43.8,33.8c3.3-1.9,4.7-5.1,4.7-8.2c0-3.5-1.3-6.2-3.6-7.9c-2.3-1.8-5.7-2.8-9.9-2.8H20v40.8h13.4
				c6.9,0,9.6-0.4,13.3-3.5c2.5-2,3.8-5.6,3.8-8.9C50.5,41.5,50.3,36.1,43.8,33.8z M30.4,24h3.7c0.8,0,1.9,0,2.8,0.4
				c0.9,0.4,1.6,1.2,1.6,2.7c0,1.6-0.7,2.4-1.7,2.9c-0.9,0.4-2,0.4-2.8,0.4h-3.7V24z M38.4,46c-1.1,0.5-2.4,0.5-3.1,0.5h-4.9v-7.4
				h4.9c0.8,0,2.1,0,3.2,0.4c1.1,0.4,2,1.3,2,3.1C40.5,44.5,39.6,45.5,38.4,46z"/>
		</g>
	</g>
	<g>
		<path class="st9" d="M267,64c0.8-0.1,1.9-0.2,3.2-0.2c1.6,0,2.8,0.4,3.6,1c0.7,0.6,1.1,1.5,1.1,2.6c0,1.1-0.3,2-1,2.7
			c-0.9,0.9-2.3,1.4-3.9,1.4c-0.5,0-1,0-1.3-0.1v5H267V64z M268.7,70c0.4,0.1,0.8,0.1,1.4,0.1c2,0,3.2-0.9,3.2-2.7
			c0-1.7-1.2-2.5-3-2.5c-0.7,0-1.3,0.1-1.6,0.1V70z"/>
		<path class="st9" d="M285,71.8c0,3.3-2.4,4.8-4.6,4.8c-2.5,0-4.4-1.8-4.4-4.6c0-3,2-4.8,4.6-4.8C283.2,67.1,285,69,285,71.8z
			 M277.7,71.9c0,2,1.2,3.5,2.8,3.5c1.6,0,2.8-1.5,2.8-3.5c0-1.5-0.8-3.5-2.8-3.5S277.7,70.2,277.7,71.9z"/>
		<path class="st9" d="M287.7,67.3l1.2,4.6c0.3,1,0.5,1.9,0.7,2.9h0.1c0.2-0.9,0.5-1.9,0.8-2.8l1.5-4.6h1.4l1.4,4.5
			c0.3,1.1,0.6,2,0.8,2.9h0.1c0.2-0.9,0.4-1.9,0.7-2.9l1.3-4.5h1.7l-3,9h-1.5l-1.4-4.3c-0.3-1-0.6-1.9-0.8-3h0c-0.2,1.1-0.5,2-0.8,3
			l-1.5,4.3h-1.5l-2.8-9H287.7z"/>
		<path class="st9" d="M301.8,72.1c0,2.2,1.5,3.1,3.2,3.1c1.2,0,1.9-0.2,2.6-0.5l0.3,1.2c-0.6,0.3-1.6,0.6-3.1,0.6
			c-2.8,0-4.5-1.8-4.5-4.5s1.6-4.9,4.3-4.9c3,0,3.8,2.6,3.8,4.2c0,0.3,0,0.6-0.1,0.8H301.8z M306.8,71c0-1-0.4-2.7-2.3-2.7
			c-1.7,0-2.4,1.5-2.6,2.7H306.8z"/>
		<path class="st9" d="M310.5,70.2c0-1.1,0-2-0.1-2.8h1.5l0.1,1.8h0.1c0.4-1.2,1.4-2,2.6-2c0.2,0,0.3,0,0.5,0.1v1.5
			c-0.2,0-0.3-0.1-0.6-0.1c-1.2,0-2,0.9-2.3,2.1c0,0.2-0.1,0.5-0.1,0.8v4.8h-1.7V70.2z"/>
		<path class="st9" d="M317.5,72.1c0,2.2,1.5,3.1,3.2,3.1c1.2,0,1.9-0.2,2.6-0.5l0.3,1.2c-0.6,0.3-1.6,0.6-3.1,0.6
			c-2.8,0-4.6-1.8-4.6-4.5s1.6-4.9,4.3-4.9c3,0,3.8,2.6,3.8,4.2c0,0.3,0,0.6-0.1,0.8H317.5z M322.4,71c0-1-0.4-2.7-2.3-2.7
			c-1.7,0-2.4,1.5-2.6,2.7H322.4z"/>
		<path class="st9" d="M334.1,63.1V74c0,0.8,0,1.7,0.1,2.3h-1.5l-0.1-1.6h0c-0.5,1-1.6,1.8-3.2,1.8c-2.2,0-4-1.8-4-4.6
			c0-3,1.9-4.8,4.1-4.8c1.4,0,2.4,0.7,2.8,1.4h0v-5.4H334.1z M332.4,71c0-0.2,0-0.5-0.1-0.7c-0.2-1-1.2-1.9-2.4-1.9
			c-1.7,0-2.8,1.5-2.8,3.5c0,1.8,0.9,3.3,2.7,3.3c1.1,0,2.2-0.7,2.5-2c0.1-0.2,0.1-0.4,0.1-0.7V71z"/>
	</g>
</g>
</svg>
